<?xml version="1.0" standalone="no"?>
<svg viewBox="0 0 301 489" version="1.1" xmlns="http://www.w3.org/2000/svg" xmlns:xlink="http://www.w3.org/1999/xlink" stroke-linecap="round" stroke-linejoin="round" fill-rule="evenodd" xml:space="preserve" >
<defs >
<clipPath id="clipId0" >
<path d="M0,489 301,489 301,0 0,0 z" />
</clipPath>
</defs>
<g clip-path="url(#clipId0)" fill="none" stroke="rgb(0,0,0)" stroke-width="0.1" />
<g clip-path="url(#clipId0)" fill="none" stroke="rgb(0,255,0)" stroke-width="0.25" >
<polyline points="259.536,35.0573 257.602,21.6107 " stroke-dasharray="7.020000,6.142500" />
<polyline points="176.764,16.487 176.332,14.5344 " stroke-dasharray="7.020000,6.142500" />
<polyline points="257.191,20.6869 255.801,18.8607 " stroke-dasharray="7.020000,6.142500" />
<polyline points="265.708,107.645 265.695,107.638 " stroke-dasharray="7.020000,6.142500" />
<polyline points="268.55,109.317 265.695,107.638 " stroke-dasharray="7.020000,6.142500" />
<polyline points="190.067,118.466 186.13,116.678 " stroke-dasharray="7.020000,6.142500" />
<polyline points="190.067,118.466 186.13,116.678 " stroke-dasharray="7.020000,6.142500" />
<polyline points="243.253,100.774 203.013,85.7994 " stroke-dasharray="7.020000,6.142500" />
<polyline points="243.253,100.774 203.013,85.7994 " stroke-dasharray="7.020000,6.142500" />
<polyline points="263.418,106.655 243.531,100.866 " stroke-dasharray="7.020000,6.142500" />
<polyline points="263.418,106.655 243.531,100.866 " stroke-dasharray="7.020000,6.142500" />
<polyline points="201.647,85.5484 189.538,85.4613 " stroke-dasharray="7.020000,6.142500" />
<polyline points="201.647,85.5484 189.538,85.4613 " stroke-dasharray="7.020000,6.142500" />
<polyline points="285.755,476.481 287.755,476.481 " stroke-dasharray="7.020000,6.142500" />
<polyline points="285.755,476.481 287.755,476.481 " stroke-dasharray="7.020000,6.142500" />
<polyline points="285.755,474.931 287.755,474.931 " stroke-dasharray="7.020000,6.142500" />
<polyline points="285.755,471.431 287.755,471.431 " stroke-dasharray="7.020000,6.142500" />
<polyline points="285.755,469.881 287.755,469.881 " stroke-dasharray="7.020000,6.142500" />
<polyline points="285.755,469.881 287.755,469.881 " stroke-dasharray="7.020000,6.142500" />
<polyline points="246.568,456.683 249.755,456.683 " stroke-dasharray="7.020000,6.142500" />
<polyline points="285.755,444.481 287.755,444.481 " stroke-dasharray="7.020000,6.142500" />
<polyline points="285.755,444.481 287.755,444.481 " stroke-dasharray="7.020000,6.142500" />
<polyline points="285.755,442.931 287.755,442.931 " stroke-dasharray="7.020000,6.142500" />
<polyline points="285.755,439.431 287.755,439.431 " stroke-dasharray="7.020000,6.142500" />
<polyline points="233.755,438.683 249.755,438.683 " stroke-dasharray="7.020000,6.142500" />
<polyline points="285.755,437.881 287.755,437.881 " stroke-dasharray="7.020000,6.142500" />
<polyline points="285.755,437.881 287.755,437.881 " stroke-dasharray="7.020000,6.142500" />
<polyline points="274.726,427.933 287.755,427.933 " stroke-dasharray="7.020000,6.142500" />
<polyline points="190.069,118.466 251.855,118.466 " stroke-dasharray="7.020000,6.142500" />
<polyline points="172.155,118.466 172.156,118.466 " stroke-dasharray="7.020000,6.142500" />
<polyline points="172.155,103.484 204.095,103.484 " stroke-dasharray="7.020000,6.142500" />
<polyline points="204.095,65.3071 209.255,65.3071 " stroke-dasharray="7.020000,6.142500" />
<polyline points="187.154,13.3561 199.002,13.3561 " stroke-dasharray="7.020000,6.142500" />
<polyline points="252.505,2.5025 276.505,2.5025 " stroke-dasharray="7.020000,6.142500" />
<polyline points="200.002,2.31741 252.505,2.31741 " stroke-dasharray="7.020000,6.142500" />
<polyline points="9.33024,51.5577 176.332,14.5344 " stroke-dasharray="7.020000,6.142500" />
<polyline points="176.764,16.487 178.461,16.1109 " stroke-dasharray="7.020000,6.142500" />
<polyline points="250.21,436.477 270.432,428.727 " stroke-dasharray="7.020000,6.142500" />
<polyline points="242.536,44.4403 258.369,37.1624 " stroke-dasharray="7.020000,6.142500" />
<polyline points="242.924,450.828 264.822,430.877 " stroke-dasharray="7.020000,6.142500" />
<polyline points="239.48,453.966 264.823,430.876 " stroke-dasharray="7.020000,6.142500" />
<polyline points="228.031,441.4 256.457,415.501 " stroke-dasharray="7.020000,6.142500" />
<polyline points="259.641,114.845 284.291,85.5935 " stroke-dasharray="7.020000,6.142500" />
<polyline points="245.794,75.5038 247.468,73.3221 " stroke-dasharray="7.020000,6.142500" />
<polyline points="245.794,75.5038 245.794,75.5038 " stroke-dasharray="7.020000,6.142500" />
<polyline points="209.287,64.0903 209.431,61.3438 " stroke-dasharray="7.020000,6.142500" />
<polyline points="184.121,113.406 184.135,113.099 " stroke-dasharray="7.020000,6.142500" />
<polyline points="184.121,113.406 184.135,113.099 " stroke-dasharray="7.020000,6.142500" />
<polyline points="281.619,397.323 283.332,159.181 " stroke-dasharray="7.020000,6.142500" />
<polyline points="283.332,159.181 283.621,118.879 " stroke-dasharray="7.020000,6.142500" />
<polyline points="172.155,118.65 172.155,103.484 " stroke-dasharray="7.020000,6.142500" />
<polyline points="199.002,13.3561 199.002,13.3555 " stroke-dasharray="7.020000,6.142500" />
<polyline points="204.095,103.484 204.095,65.3071 " stroke-dasharray="7.020000,6.142500" />
<polyline points="230.505,34.6632 230.505,34.663 " stroke-dasharray="7.020000,6.142500" />
<polyline points="230.505,34.6631 230.505,34.663 " stroke-dasharray="7.020000,6.142500" />
<polyline points="252.505,16.8008 252.505,2.31741 " stroke-dasharray="7.020000,6.142500" />
<polyline points="285.755,476.481 285.755,469.881 " stroke-dasharray="7.020000,6.142500" />
<polyline points="285.755,444.481 285.755,442.931 " stroke-dasharray="7.020000,6.142500" />
<polyline points="285.755,442.931 285.755,439.431 " stroke-dasharray="7.020000,6.142500" />
<polyline points="285.755,439.431 285.755,437.881 " stroke-dasharray="7.020000,6.142500" />
<polyline points="285.755,476.481 285.755,469.881 " stroke-dasharray="7.020000,6.142500" />
<polyline points="285.755,444.481 285.755,442.931 " stroke-dasharray="7.020000,6.142500" />
<polyline points="285.755,442.931 285.755,439.431 " stroke-dasharray="7.020000,6.142500" />
<polyline points="285.755,439.431 285.755,437.881 " stroke-dasharray="7.020000,6.142500" />
<polyline points="286.687,79.0324 286.687,12.6841 " stroke-dasharray="7.020000,6.142500" />
<polyline points="287.755,486.682 287.755,427.933 " stroke-dasharray="7.020000,6.142500" />
<path d="M9.33024,51.5577  A10,10 0 0,0 4.48287,54.1908 " stroke-dasharray="7.020000,6.142500" />
<path d="M180.161,13.8475  A2,2 0 0,0 179.039,14.4016 " stroke-dasharray="7.020000,6.142500" />
<path d="M187.154,13.3561  A50,50 0 0,0 180.161,13.8475 " stroke-dasharray="7.020000,6.142500" />
<path d="M184.121,113.406  A3.429,3.429 0 0,0 186.13,116.678 " stroke-dasharray="7.020000,6.142500" />
<path d="M184.121,113.406  A3.429,3.429 0 0,0 186.13,116.678 " stroke-dasharray="7.020000,6.142500" />
<path d="M189.538,85.4613  A4,4 0 0,0 185.52,89.1738 " stroke-dasharray="7.020000,6.142500" />
<path d="M189.538,85.4613  A4,4 0 0,0 185.52,89.1738 " stroke-dasharray="7.020000,6.142500" />
<path d="M200.002,2.31742  A1,1 0 0,0 199.301,2.60416 " stroke-dasharray="7.020000,6.142500" />
<path d="M203.013,85.7994  A4,4 0 0,0 201.647,85.5484 " stroke-dasharray="7.020000,6.142500" />
<path d="M203.013,85.7995  A4,4 0 0,0 201.647,85.5484 " stroke-dasharray="7.020000,6.142500" />
<path d="M209.878,60.3526  A1.5,1.5 0 0,0 209.431,61.3438 " stroke-dasharray="7.020000,6.142500" />
<path d="M229.35,62.0985  A4.5,4.5 0 1,0 235.661,68.5151 " stroke-dasharray="7.020000,6.142500" />
<circle cx="232.505" cy="65.3071" r="4.875" stroke-dasharray="7.020000,6.142500" />
<circle cx="232.505" cy="65.3071" r="6.4925" stroke-dasharray="7.020000,6.142500" />
<circle cx="232.505" cy="65.3071" r="8" stroke-dasharray="7.020000,6.142500" />
<path d="M240.95,44.4766  A22.477,22.477 0 0,0 210.678,59.9436 " stroke-dasharray="7.020000,6.142500" />
<path d="M209.287,64.0903  A23.25,23.25 0 0,0 250.951,79.4608 " stroke-dasharray="7.020000,6.142500" />
<path d="M233.755,438.683  A9,9 0 0,0 230.217,439.408 " stroke-dasharray="7.020000,6.142500" />
<path d="M228.031,441.4  A8.5,8.5 0 0,0 239.48,453.966 " stroke-dasharray="7.020000,6.142500" />
<path d="M233.755,438.683  A9,9 0 0,0 227.068,441.66 " stroke-dasharray="7.020000,6.142500" />
<path d="M256.457,415.501  A25,25 0 0,0 258.047,413.917 " stroke-dasharray="7.020000,6.142500" />
<path d="M270.576,425.406  A42,42 0 0,0 281.619,397.323 " stroke-dasharray="7.020000,6.142500" />
<path d="M240.95,44.4766  A2,2 0 0,0 242.536,44.4403 " stroke-dasharray="7.020000,6.142500" />
<path d="M243.253,100.774  A4,4 0 0,0 243.531,100.866 " stroke-dasharray="7.020000,6.142500" />
<path d="M243.253,100.774  A4,4 0 0,0 243.531,100.866 " stroke-dasharray="7.020000,6.142500" />
<path d="M249.755,456.683  A9,9 0 1,0 249.755,438.683 " stroke-dasharray="7.020000,6.142500" />
<path d="M249.755,456.683  A9,9 0 1,0 249.755,438.683 " stroke-dasharray="7.020000,6.142500" />
<path d="M251.855,118.466  A10.1816,10.1816 0 0,0 259.641,114.845 " stroke-dasharray="7.020000,6.142500" />
<path d="M255.801,18.8607  A4,4 0 0,0 252.962,17.2989 " stroke-dasharray="7.020000,6.142500" />
<path d="M252.505,16.8008  A0.5,0.5 0 0,0 252.962,17.2989 " stroke-dasharray="7.020000,6.142500" />
<path d="M250.21,436.477  A12,12 0 0,0 246.568,456.683 " stroke-dasharray="7.020000,6.142500" />
<path d="M257.602,21.6107  A2.42313,2.42313 0 0,0 257.191,20.6869 " stroke-dasharray="7.020000,6.142500" />
<path d="M258.369,37.1624  A2.05809,2.05809 0 0,0 259.536,35.0573 " stroke-dasharray="7.020000,6.142500" />
<path d="M265.695,107.638  A10,10 0 0,0 263.418,106.655 " stroke-dasharray="7.020000,6.142500" />
<path d="M265.695,107.638  A10,10 0 0,0 263.418,106.655 " stroke-dasharray="7.020000,6.142500" />
<path d="M274.726,427.933  A12,12 0 0,0 270.432,428.727 " stroke-dasharray="7.020000,6.142500" />
<path d="M284.291,85.5935  A10.1816,10.1816 0 0,0 286.687,79.0324 " stroke-dasharray="7.020000,6.142500" />
<path d="M286.687,12.6841  A10.1816,10.1816 0 0,0 276.505,2.5025 " stroke-dasharray="7.020000,6.142500" />
<path d="M283.621,118.879  A4.478,4.478 0 0,0 280.46,114.567 " stroke-dasharray="7.020000,6.142500" />
<path d="M268.55,109.317  A55.907,55.907 0 0,0 280.46,114.567 " stroke-dasharray="7.020000,6.142500" />
<path d="M185.52,89.1738  A850.865,850.865 0 0,0 184.135,113.099 " stroke-dasharray="7.020000,6.142500" />
<path d="M185.52,89.1738  A850.865,850.865 0 0,0 184.135,113.099 " stroke-dasharray="7.020000,6.142500" />
</g>
<g clip-path="url(#clipId0)" fill="none" stroke="rgb(0,0,0)" stroke-width="0.25" >
<polyline points="125.505,118.651 125.502,116.356 " />
<polyline points="176.764,16.487 176.332,14.5344 " />
<polyline points="272.005,484.729 268.367,471.149 " />
<polyline points="272.005,484.729 268.367,471.149 " />
<polyline points="252.348,75.1759 249.571,73.0452 " />
<polyline points="268.55,109.318 265.708,107.645 " />
<polyline points="224.013,133.873 190.067,118.466 " />
<polyline points="224.013,133.873 190.067,118.466 " />
<polyline points="261.07,463.05 250.21,458.888 " />
<polyline points="261.07,463.05 250.21,458.888 " />
<polyline points="89.7145,114.549 8.83065,92.1942 " />
<polyline points="214.503,60.1076 211.008,59.9244 " />
<polyline points="261.499,135.871 232.135,135.66 " />
<polyline points="261.499,135.871 232.135,135.66 " />
<polyline points="287.755,486.683 276.005,486.683 " />
<polyline points="276.005,486.683 287.755,486.683 " />
<polyline points="233.755,456.683 246.568,456.683 " />
<polyline points="274.726,427.933 287.755,427.933 " />
<polyline points="125.505,118.651 172.155,118.651 " />
<polyline points="172.155,118.466 251.855,118.466 " />
<polyline points="103.034,116.356 125.502,116.356 " />
<polyline points="230.505,34.6633 230.505,34.6633 " />
<polyline points="230.505,34.6629 230.505,34.6629 " />
<polyline points="187.154,13.3561 199.002,13.3561 " />
<polyline points="252.505,2.5025 276.505,2.5025 " />
<polyline points="200.002,2.31741 252.505,2.31741 " />
<polyline points="9.33024,51.5577 176.332,14.5344 " />
<polyline points="176.764,16.487 178.461,16.1109 " />
<polyline points="250.21,436.477 270.432,428.727 " />
<polyline points="264.823,430.876 267.906,428.068 " />
<polyline points="239.48,453.966 242.924,450.828 " />
<polyline points="228.031,441.4 256.457,415.501 " />
<polyline points="264.822,430.877 267.906,428.068 " />
<polyline points="259.641,114.845 284.291,85.5935 " />
<polyline points="245.794,75.5038 247.468,73.3221 " />
<polyline points="250.951,79.4608 252.625,77.2791 " />
<polyline points="250.951,79.4608 250.951,79.4608 " />
<polyline points="215.778,64.4305 215.922,61.684 " />
<polyline points="209.287,64.0903 209.431,61.3438 " />
<polyline points="283.332,159.181 283.621,118.879 " />
<polyline points="264.619,397.201 266.463,140.907 " />
<polyline points="281.619,397.323 283.332,159.181 " />
<polyline points="264.619,397.201 266.463,140.907 " />
<polyline points="1.49464,82.5556 1.49464,61.3207 " />
<polyline points="172.155,118.651 172.155,118.466 " />
<polyline points="199.002,13.3561 199.002,3.31741 " />
<polyline points="230.505,34.6633 230.505,34.6629 " />
<polyline points="230.505,34.6633 230.505,34.6629 " />
<polyline points="252.505,2.5025 252.505,2.31741 " />
<polyline points="286.687,79.0324 286.687,12.6841 " />
<polyline points="287.755,486.683 287.755,427.933 " />
<polyline points="287.755,486.683 287.755,486.682 " />
<path d="M1.49463,82.5556  A10,10 0 0,0 8.83066,92.1942 " />
<path d="M9.33024,51.5577  A10,10 0 0,0 1.49463,61.3207 " />
<path d="M89.7145,114.549  A50,50 0 0,0 103.034,116.356 " />
<path d="M180.161,13.8475  A2,2 0 0,0 178.461,16.1109 " />
<path d="M187.154,13.3561  A50,50 0 0,0 180.161,13.8475 " />
<path d="M200.002,2.31742  A1,1 0 0,0 199.002,3.31742 " />
<path d="M211.008,59.9244  A1.5,1.5 0 0,0 209.431,61.3438 " />
<path d="M215.922,61.684  A1.5,1.5 0 0,0 214.503,60.1076 " />
<path d="M224.013,133.873  A20,20 0 0,0 232.135,135.66 " />
<path d="M224.013,133.873  A20,20 0 0,0 232.135,135.66 " />
<circle cx="232.505" cy="65.3071" r="4.5" />
<path d="M215.778,64.4305  A16.75,16.75 0 0,0 245.794,75.5038 " />
<path d="M209.287,64.0903  A23.25,23.25 0 0,0 250.951,79.4608 " />
<path d="M228.031,441.4  A8.5,8.5 0 0,0 239.48,453.966 " />
<path d="M230.217,439.408  A9,9 0 0,0 233.755,456.683 " />
<path d="M227.068,441.66  A9,9 0 0,0 233.755,456.683 " />
<path d="M256.457,415.501  A25,25 0 0,0 264.619,397.201 " />
<path d="M267.906,428.068  A42,42 0 0,0 281.619,397.323 " />
<path d="M258.047,413.917  A25,25 0 0,0 264.619,397.201 " />
<path d="M267.906,428.068  A42,42 0 0,0 270.576,425.406 " />
<path d="M249.571,73.0452  A1.5,1.5 0 0,0 247.468,73.3221 " />
<path d="M252.625,77.2791  A1.5,1.5 0 0,0 252.348,75.1759 " />
<path d="M251.855,118.466  A10.1816,10.1816 0 0,0 259.641,114.845 " />
<path d="M250.21,436.477  A12,12 0 0,0 250.21,458.888 " />
<path d="M246.568,456.683  A12,12 0 0,0 250.21,458.888 " />
<path d="M268.367,471.149  A12,12 0 0,0 261.07,463.05 " />
<path d="M268.367,471.149  A12,12 0 0,0 261.07,463.05 " />
<path d="M266.463,140.907  A5,5 0 0,0 261.499,135.871 " />
<path d="M266.463,140.907  A5,5 0 0,0 261.499,135.871 " />
<path d="M272.005,484.729  A2.50003,2.50003 0 0,0 274.103,486.561 " />
<path d="M272.005,484.729  A2.50003,2.50003 0 0,0 274.103,486.561 " />
<path d="M274.726,427.933  A12,12 0 0,0 270.432,428.727 " />
<path d="M274.103,486.561  A15,15 0 0,0 276.005,486.683 " />
<path d="M274.103,486.561  A15,15 0 0,0 276.005,486.683 " />
<path d="M284.291,85.5935  A10.1816,10.1816 0 0,0 286.687,79.0324 " />
<path d="M286.687,12.6841  A10.1816,10.1816 0 0,0 276.505,2.5025 " />
<path d="M283.621,118.879  A4.478,4.478 0 0,0 280.46,114.567 " />
<path d="M268.55,109.318  A55.907,55.907 0 0,0 280.46,114.567 " />
</g>
<g clip-path="url(#clipId0)" fill="none" stroke="rgb(170,0,0)" stroke-width="0.25" >
<circle cx="166.505" cy="34.6631" r="2.5" />
<circle cx="230.505" cy="34.6631" r="2.5" />
<circle cx="102.505" cy="98.6631" r="2.5" />
<circle cx="166.505" cy="98.6631" r="2.5" />
<circle cx="6.50537" cy="66.6631" r="2.5" />
<circle cx="38.5054" cy="66.6631" r="2.5" />
<circle cx="166.505" cy="34.6631" r="2.5" />
<circle cx="230.505" cy="34.6631" r="2.5" />
<circle cx="102.505" cy="98.6631" r="2.5" />
<circle cx="166.505" cy="98.6631" r="2.5" />
<circle cx="6.50537" cy="66.6631" r="2.5" />
<circle cx="38.5054" cy="66.6631" r="2.5" />
<polyline points="287.505,439.163 287.505,444.163 " />
<polyline points="287.505,444.163 299.505,444.163 " />
<polyline points="299.505,444.163 299.505,439.163 " />
<polyline points="299.505,439.163 287.505,439.163 " />
<polyline points="287.505,471.163 287.505,476.163 " />
<polyline points="287.505,476.163 299.505,476.163 " />
<polyline points="299.505,476.163 299.505,471.163 " />
<polyline points="299.505,471.163 287.505,471.163 " />
<polyline points="287.505,439.163 287.505,444.163 " />
<polyline points="287.505,444.163 299.505,444.163 " />
<polyline points="299.505,444.163 299.505,439.163 " />
<polyline points="299.505,439.163 287.505,439.163 " />
<polyline points="287.505,471.163 287.505,476.163 " />
<polyline points="287.505,476.163 299.505,476.163 " />
<polyline points="299.505,476.163 299.505,471.163 " />
<polyline points="299.505,471.163 287.505,471.163 " />
</g>
</svg>
